<svg xmlns="http://www.w3.org/2000/svg" viewBox="0 0 24 24"><path fill="#2FC363" d="M11.999 0C10.626 0 2.195 4.818 1.513 6c-.682 1.182-.686 10.819 0 12 .686 1.181 9.115 6 10.486 6 1.371 0 9.8-4.824 10.487-6 .686-1.176.686-10.83 0-12-.687-1.17-9.115-6-10.487-6zm2.841 19.415v.002c-.188 0-1.939-1.677-1.8-1.814.041-.041.296-.069.832-.086 0-1.23.028-3.215.045-4.046.002-.095-.021-.161-.021-.274h-3.787c0 .333-.022 1.697.065 3.416.011.213-.075.279-.272.278-.48-.001-.96-.005-1.44-.004-.194 0-.278-.072-.272-.286.043-1.567.14-3.938-.007-9.969v-.149c-.46-.016-.778-.045-.82-.086C7.225 6.26 9 4.583 9.187 4.583c.187 0 1.951 1.677 1.813 1.814-.041.041-.374.07-.795.086v.148c-.114 1.207-.096 3.731-.124 4.94h3.803c0-.213.018-1.628-.057-3.921-.005-.159.046-.242.199-.244.525-.004 1.049-.006 1.575-.003.164.001.216.081.213.252-.173 8.967-.031 8.341-.031 9.86.42.016.797.045.838.086.136.136-1.593 1.814-1.781 1.814z"/></svg>