<svg width="110" height="116" viewBox="0 0 110 116" fill="none" xmlns="http://www.w3.org/2000/svg">
<path d="M5.76127 48.9111C3.42623 51.4046 5.89643 55.258 7.42341 56.8731L14.9123 65.9557L17.7453 69.3967L31.3615 85.9294L36.0603 64.452L23.0828 53.0825L42.6663 35.4367L46.7287 14.8063L25.9099 32.6193L19.2116 38.1951L5.76127 48.9111Z" fill="url(#paint0_radial_308_45)"/>
<path d="M5.76127 48.9111C3.42623 51.4046 5.89643 55.258 7.42341 56.8731L14.9123 65.9557L17.7453 69.3967L31.3615 85.9294L36.0603 64.452L23.0828 53.0825L42.6663 35.4367L46.7287 14.8063L25.9099 32.6193L19.2116 38.1951L5.76127 48.9111Z" stroke="#979797" stroke-width="3"/>
<path d="M5.76127 48.9111C3.42623 51.4046 5.89643 55.258 7.42341 56.8731L14.9123 65.9557L17.7453 69.3967L31.3615 85.9294L36.0603 64.452L23.0828 53.0825L42.6663 35.4367L46.7287 14.8063L25.9099 32.6193L19.2116 38.1951L5.76127 48.9111Z" stroke="#979797" stroke-width="3"/>
<path d="M5.76127 48.9111C3.42623 51.4046 5.89643 55.258 7.42341 56.8731L14.9123 65.9557L17.7453 69.3967L31.3615 85.9294L36.0603 64.452L23.0828 53.0825L42.6663 35.4367L46.7287 14.8063L25.9099 32.6193L19.2116 38.1951L5.76127 48.9111Z" stroke="black" stroke-width="3"/>
<path d="M104.701 72.1352C107.114 69.5769 104.203 65.1407 102.446 63.2423L93.7646 52.6538L90.4802 48.6426L74.6947 29.37L70.7476 52.6294L85.5505 66.1701L65.1333 84.0317L61.8347 106.41L83.5919 88.4621L90.6007 82.8586L104.701 72.1352Z" fill="url(#paint1_radial_308_45)"/>
<path d="M104.701 72.1352C107.114 69.5769 104.203 65.1407 102.446 63.2423L93.7646 52.6538L90.4802 48.6426L74.6947 29.37L70.7476 52.6294L85.5505 66.1701L65.1333 84.0317L61.8347 106.41L83.5919 88.4621L90.6007 82.8586L104.701 72.1352Z" stroke="#979797" stroke-width="3"/>
<path d="M104.701 72.1352C107.114 69.5769 104.203 65.1407 102.446 63.2423L93.7646 52.6538L90.4802 48.6426L74.6947 29.37L70.7476 52.6294L85.5505 66.1701L65.1333 84.0317L61.8347 106.41L83.5919 88.4621L90.6007 82.8586L104.701 72.1352Z" stroke="#979797" stroke-width="3"/>
<path d="M104.701 72.1352C107.114 69.5769 104.203 65.1407 102.446 63.2423L93.7646 52.6538L90.4802 48.6426L74.6947 29.37L70.7476 52.6294L85.5505 66.1701L65.1333 84.0317L61.8347 106.41L83.5919 88.4621L90.6007 82.8586L104.701 72.1352Z" stroke="black" stroke-width="3"/>
<path d="M56.0826 4.21933L36.4514 95.3359L53.477 112.823L69.2186 21.6178L56.0826 4.21933Z" fill="url(#paint2_linear_308_45)"/>
<path d="M56.0826 4.21933L36.4514 95.3359L53.477 112.823L69.2186 21.6178L56.0826 4.21933Z" stroke="#979797" stroke-width="3"/>
<path d="M56.0826 4.21933L36.4514 95.3359L53.477 112.823L69.2186 21.6178L56.0826 4.21933Z" stroke="#979797" stroke-width="3"/>
<path d="M56.0826 4.21933L36.4514 95.3359L53.477 112.823L69.2186 21.6178L56.0826 4.21933Z" stroke="black" stroke-width="3"/>
<defs>
<radialGradient id="paint0_radial_308_45" cx="0" cy="0" r="1" gradientUnits="userSpaceOnUse" gradientTransform="translate(37.7627 49.0115) rotate(46.605) scale(22.2197 30.0147)">
<stop stop-color="#ACA294"/>
<stop offset="1" stop-color="#FFD596" stop-opacity="0"/>
</radialGradient>
<radialGradient id="paint1_radial_308_45" cx="0" cy="0" r="1" gradientUnits="userSpaceOnUse" gradientTransform="translate(69.7404 69.4842) rotate(-132.787) scale(25.8592 30.8845)">
<stop stop-color="#FFCB11"/>
<stop offset="1" stop-color="#979797" stop-opacity="0"/>
</radialGradient>
<linearGradient id="paint2_linear_308_45" x1="36.9236" y1="9.49893" x2="0.037704" y2="76.0552" gradientUnits="userSpaceOnUse">
<stop stop-color="#FFD700"/>
<stop offset="0.859375" stop-color="#EBC752"/>
<stop offset="1" stop-color="#D3A42A" stop-opacity="0.67"/>
</linearGradient>
</defs>
</svg>
