<svg xmlns="http://www.w3.org/2000/svg" xmlns:xlink="http://www.w3.org/1999/xlink" enable-background="new 0 0 1200 1200" viewBox="0 0 1200 1200"><path fill="#c2e5ff" d="M35.727 857.377c114.91 264.775 465.853 325.373 702.082 265.809 46.381-11.695 375.819-100.767 447.83-413.16 50.552-219.3-49.793-444.382-219.581-563.399C728.42-19.952 418.817 66.152 240.862 215.969 79.821 351.545-67.821 618.782 35.727 857.377z"/><defs><path id="a" d="M34.55 857.914c115.149 265.327 466.824 326.052 703.546 266.363 46.477-11.719 376.602-100.977 448.764-414.021 50.657-219.757-49.897-445.308-220.039-564.574C728.688-21.244 418.44 65.039 240.113 215.168 78.737 351.028-69.213 618.821 34.55 857.914z"/></defs><clipPath id="b"><use overflow="visible" xlink:href="#a"/></clipPath><path fill="#fff" d="M515.169 311.144c-1.284 0-2.552.063-3.827.097-14.729-62.294-70.658-108.662-137.452-108.662-46.238 0-87.283 22.216-113.057 56.552-20.915-8.456-43.769-13.123-67.715-13.123-99.838 0-180.772 80.934-180.772 180.772S93.28 607.552 193.118 607.552c25.575 0 49.904-5.323 71.955-14.902 22.524 24.522 54.846 39.901 90.767 39.901 41.401 0 78.006-20.438 100.351-51.753 17.954 8.263 37.919 12.905 58.978 12.905 78.026 0 141.279-63.253 141.279-141.279s-63.253-141.28-141.279-141.28zM812.565 527.725c1.014 0 2.016-.05 3.024-.077 11.64 49.23 55.84 85.875 108.627 85.875 36.541 0 68.979-17.557 89.348-44.693 16.529 6.683 34.59 10.371 53.515 10.371 78.901 0 142.862-63.962 142.862-142.862 0-78.901-63.962-142.862-142.862-142.862-20.212 0-39.438 4.206-56.865 11.777-17.801-19.379-43.344-31.533-71.732-31.533-32.719 0-61.647 16.152-79.306 40.9a111.186 111.186 0 0 0-46.61-10.198c-61.663 0-111.651 49.988-111.651 111.651s49.987 111.651 111.65 111.651z" clip-path="url(#b)"/><path fill="#ffbe55" d="M51.297 1086.638s228.952-583.494 346.608-614.936c104.891-28.03 386.776 386.776 386.776 386.776s119.896-181.334 202.73-256.028c19.904-17.948 50.98-14.599 66.695 7.112 51.846 71.629 170.278 246.726 268.832 477.076H51.297z" clip-path="url(#b)"/><path fill="#282828" d="M51.297 1086.638s228.952-583.494 346.608-614.936c104.891-28.03 386.776 386.776 386.776 386.776s119.896-181.334 202.73-256.028c19.904-17.948 50.98-14.599 66.695 7.112 51.846 71.629 170.278 246.726 268.832 477.076H51.297z" clip-path="url(#b)" opacity=".25"/><path fill="#ffbe55" d="m310.017 878.262-85.828 277.98h102.782z" clip-path="url(#b)"/><path fill="#ffbe55" d="M1267.276 1156.242a7597.876 7597.876 0 0 0-164.372-124.864C952.506 920.331 741.737 773.317 578.313 761.22c-22.59-1.672-41.263-.543-45.326-.281-41.481 2.677-139.918 9.029-200.225 82.498-98.306 119.759-9.566 304.849-5.79 312.804h940.304z" clip-path="url(#b)"/><path fill="#fff" d="M1267.276 1156.242a7597.876 7597.876 0 0 0-164.372-124.864C952.506 920.331 741.737 773.317 578.313 761.22c-22.59-1.672-41.263-.543-45.326-.281-41.481 2.677-139.918 9.029-200.225 82.498-98.306 119.759-9.566 304.849-5.79 312.804h940.304z" clip-path="url(#b)" opacity=".5"/><path fill="#0b4870" d="m432.872 939.966 206.586 216.276h119.87L489.179 939.966zM588.882 939.966l282.989 216.276H991.74L645.189 939.966zM639.458 819.589l363.071 267.049s96.647-23.162 174.267 0L654.697 819.589h-15.239z" clip-path="url(#b)" opacity=".5"/><path fill="#0b4870" d="M639.458 819.589V283.93h15.239v535.659c-.137.199-3.16 4.432-8.284 4.064-4.316-.309-6.664-3.636-6.955-4.064z" clip-path="url(#b)"/><g clip-path="url(#b)"><path fill="#0b4870" d="M552.418 484.807a103.267 103.267 0 0 0 7.723-12.684c5.393-10.487 13.703-26.644 7.188-36.533-1.015-1.54-2.952-3.783-6.87-5.56a860.93 860.93 0 0 1-1.256 3.888c-8.097 24.848-11.195 30.302-10.313 39.038.288 2.847 1.092 6.974 3.528 11.851z"/><path fill="#efb68f" d="M550.996 473.775c-5.227 18.729-30.445 19.66-30.445 19.66M523.404 502.079s-30.997 10.581-37.391 14.65c0 0 42.264 44.559 104.056-1.562-4.918-3.04-5.796-3.159-12.464-6.074-8.604-3.762-20.752-8.834-27.584-10.464l-26.617 3.45z"/><path fill="#efb68f" d="m522.064 493.319 1.966 12.852 26.966-1.063 4.259-33.405h-6.463z"/><path fill="#efb68f" d="M562.056 463.92c-1.07 3.323-3.508 6.112-6.801 7.783-9.346 4.642-11.518-7.227-7.482-12.628 4.802-6.436 17.133-4.079 14.283 4.845z"/><path fill="#ffbe55" d="M518.214 504.466s16.445 20.425 41.016-2.893c4.062.333 8.433 2.603 13.797 4.111a75.744 75.744 0 0 1 17.042 7.138l-3.247 148.034h-91.819l-9.87-143.617c3.725-2.074 8.091-5.566 13.084-7.464a99.944 99.944 0 0 1 19.997-5.309z"/><path fill="#0b4870" d="M592.595 707.972c-6.706 9.911-13.515 13.027-17.783 14.183-1.317.357-5.522.461-13.924.826-6.473.281-13.21.428-20.298.412a460.964 460.964 0 0 1-12.068-.185c-12.487-.355-18.732-.464-21.159-1.088-4.473-1.15-12.331-4.601-19.891-17.301l7.29-43.962h92l5.833 47.115z"/><path fill="#ffbe55" d="m614.161 923.453-7.287-45.191-17.992 2.448 7.247 45.139z"/><path fill="#0b4870" d="m593.267 922.078-3.198 14.17h56.307v-.414a8.462 8.462 0 0 0-4.824-7.64l-26.132-10.427c-.94-.448-2.148-.429-2.864.327-3.377 3.564-7.086 9.37-17.395 3.071-.748-.455-1.727.052-1.894.913z"/><path fill="#ffbe55" d="M590.069 936.248h56.307v3.718h-56.307z"/><path fill="#0b4870" d="m565.36 796.091 36.632-4.842-10.082-89.353c-1.41-12.497-12.802-21.403-25.27-19.755a41.855 41.855 0 0 0-15.354 9.237c-6.531 6.185-9.446 12.965-10.695 16.526 8.255 29.396 16.512 58.791 24.769 88.187z"/><path fill="#0b4870" d="m585.008 905.755 30.823-4.074-17.142-141.142c-1.338-10.963-11.364-18.729-22.314-17.281-11.108 1.468-18.802 11.83-16.996 22.887l25.629 139.61z"/><path fill="#ffbe55" d="m466.336 923.453 7.286-45.191 17.992 2.448-7.247 45.139z"/><path fill="#0b4870" d="m514.325 796.091-35.82-4.842 9.271-89.353c1.41-12.497 12.802-21.403 25.27-19.755.695.092 3.145.452 6.115 1.763 0 0 5.655 2.528 9.239 7.474 3.965 5.472 4.112 12.179 3.716 17.529-.967 13.036-7.166 45.123-17.791 87.184z"/><path fill="#0b4870" d="m495.488 905.755-30.823-4.074 17.142-141.142c1.338-10.963 11.364-18.729 22.314-17.281 11.108 1.468 18.802 11.83 16.996 22.887l-25.629 139.61z"/><path fill="#efb68f" d="M581.096 652.608c2.531-.842 3.963-.284 3.963-.284 1.441-2.024 4.106-2.281 5.836-.563l1.225 1.216c1.6 1.589 1.811 4.298.48 6.172l-.076.108s-2.359 6.349-7.7 12.075c-6.9 7.398-13.199 7.253-15.09 4.688-1.786-2.424 5.945-11.604 8.777-15.05l-4.376 1.409c-.555.179-1.15-.066-1.469-.605-.343-.58-.278-1.348.155-1.846l3.434-3.948c1.344-1.545 2.991-2.756 4.841-3.372z"/><path fill="#efb68f" d="m587.025 650.826 35.784-60.331c3.13-5.197 9.642-6.115 13.828-1.949 3.781 3.763 4.154 10.224.836 14.499l-44.036 53.876-6.412-6.095z"/><path fill="#efb68f" d="M597.678 522.696c8.925 12.04 21.052 24.67 38.799 57.842 1.88 3.514 5.333 10.17 3.564 16.775-.821 3.065-2.517 5.188-3.824 6.5-1.821-.266-4.686-.949-7.795-2.895-3.966-2.482-6.336-5.772-7.493-7.631l-48.254-58.194c-4.439-5.774-3.793-14.474 1.411-19.008 4.844-4.219 19.546 1.153 23.592 6.611z"/><path fill="#ffbe55" d="M562.134 503.472c5.983.738 13.215 2.339 20.891 5.727 23.378 10.315 34.767 30.079 38.793 38.065l-21.225 26.898a161.586 161.586 0 0 1-13.637-13.248c-8.82-9.636-16.477-18-21.068-30.471-1.995-5.42-4.509-14.598-3.754-26.971z"/><path fill="#efb68f" d="M499.74 652.608c-2.517-.842-3.94-.284-3.94-.284-1.432-2.024-4.082-2.281-5.802-.563l-1.218 1.216c-1.591 1.589-1.8 4.298-.477 6.172l.076.108s2.345 6.349 7.655 12.075c6.86 7.398 13.123 7.253 15.002 4.688 1.776-2.424-5.91-11.604-8.726-15.05l4.351 1.409c.552.179 1.144-.066 1.461-.605.341-.58.277-1.348-.154-1.846l-3.415-3.948c-1.337-1.545-2.974-2.756-4.813-3.372z"/><path fill="#efb68f" d="m493.845 650.826-35.577-60.331c-3.111-5.197-9.586-6.115-13.748-1.949-3.759 3.763-4.13 10.224-.832 14.499l43.781 53.876 6.376-6.095z"/><path fill="#efb68f" d="M483.253 522.696c-8.873 12.04-20.93 24.67-38.575 57.842-1.869 3.514-5.302 10.17-3.544 16.775.816 3.065 2.502 5.188 3.802 6.5 1.811-.266 4.659-.949 7.75-2.895 3.943-2.482 6.299-5.772 7.45-7.631l47.974-58.194c4.413-5.774 3.771-14.474-1.403-19.008-4.814-4.219-19.431 1.153-23.454 6.611z"/><path fill="#ffbe55" d="M518.634 503.472c-5.948.725-13.191 2.316-20.891 5.727-22.78 10.09-33.965 29.198-37.964 37.011l21.586 30.68a150.73 150.73 0 0 0 12.079-12.468c7.729-8.956 16.468-19.083 21.435-33.977 1.894-5.68 4.185-14.887 3.755-26.973z"/><path fill="#0b4870" d="m485.981 922.078 3.198 14.17h-56.307v-.414a8.462 8.462 0 0 1 4.824-7.64l26.132-10.427c.94-.448 2.148-.429 2.864.327 3.377 3.564 7.086 9.37 17.395 3.071.748-.455 1.727.052 1.894.913z"/><path fill="#ffbe55" d="M432.872 936.248h56.307v3.718h-56.307z" transform="rotate(-180 461.025 938.107)"/><path fill="#e0a882" d="M522.064 493.319c1.036 1.502 2.551 3.083 4.679 3.653 6.683 1.793 14.307-7.747 17.372-11.581a49.035 49.035 0 0 0 6.882-11.616c-1.461 2.362-3.381 4.957-28.933 19.544z"/><path fill="#efb68f" d="M554.917 430.014c-10.087-12.346-32.538-14.567-43.683-4.835-5.057 4.416-6.423 10.103-8.439 18.494-.616 2.565-4.949 21.782 4.631 39.483 3.708 6.85 6.929 8.725 9.177 9.509 4.532 1.581 8.854-.023 12.844-1.407 8.085-2.806 13.032-7.915 14.843-9.828 8.653-9.143 23.895-35.177 10.627-51.416z"/><path fill="#0b4870" d="M541.35 437.247s14.891 5.786 8.091 24.816l5.067.687s1.087-7.534 7.704-6.402c0 0 5.357-26.464-8.143-32.899l-12.719 13.798z"/><path fill="#0b4870" d="M541.35 437.247s-17.432-11.783-31.832-4.656c-1.572-.379-5.185-1.493-7.854-4.821-3.553-4.43-3.976-10.968-1.159-16.76 0 0 2.691 1.065 6.199 1.891 4.952 1.166 8.859.634 11.095.455 4.848-.388 13.888-1.111 20.266.247 4.201.894 9.89 3.254 16.004 9.846 3.731 3.493 4.022 9.328.799 13.067-3.371 3.913-9.55 4.325-13.518.731z"/><path fill="#0b4870" d="M509.518 432.591s-4.818 6.288-7.635 19.662c0 0 1.265-20.881 6.019-21.936s1.616 2.274 1.616 2.274z"/></g><path fill="#ffbe55" d="M906.342 410.724c-17.926-3.313-45.339-6.638-78.172-3.182-47.23 4.971-65.895 19.785-106.129 21.275-20.33.753-49.947-1.756-86.604-18.093V257.713c24.512 13.171 56.334 24.61 92.405 21.545 30.972-2.632 44.841-14.237 80.786-21.545 24.309-4.943 56.98-7.567 97.715 0l-.001 153.011z" clip-path="url(#b)"/><path fill="#fff" d="m772.923 296.67 14.389 29.154 32.173 4.675-23.281 22.693 5.496 32.043-28.777-15.129-28.776 15.129 5.496-32.043-23.281-22.693 32.173-4.675z" clip-path="url(#b)"/></svg>