<svg xmlns="http://www.w3.org/2000/svg" viewBox="0 0 24 24"><path d="M2.358 15.765c.005-.023.013-.046.019-.069l-.002.002-.017.067zm17.715.041-.002-.001c.002.011.007.021.009.032l-.007-.031zm-18.088.043-.037-.04-.019.073.056-.033z"/><path fill="#8EC546" d="M9.916 11.342a28.421 28.421 0 0 1 3.813-1.212c.873-.21 1.744-.375 2.633-.509l.06-.016c-.241-.225-.496-.419-.752-.615a7.69 7.69 0 0 0-1.563-.899 7.15 7.15 0 0 0-4.105-.478 7.386 7.386 0 0 0-2.167.75c-1.067.569-2 1.378-2.768 2.306l-.03.016.466.044.572.076c.813.134 1.594.3 2.391.478.301.076.887.285.887.285.21-.091.352-.146.563-.226z"/><path fill="#2DA9E2" d="M.089 13.502c.091.314.242.615.393.899a9.21 9.21 0 0 0 1.022 1.393l.444.483c.046-.18.093-.362.141-.541.08-.3.176-.598.266-.893.069-.216.15-.427.227-.643.09-.224.185-.448.277-.674.033-.076.061-.153.098-.229.102-.214.211-.425.322-.635.135-.241.256-.479.391-.704.18-.315.377-.6.586-.885l.016-.015c-.331-.016-.677-.016-1.008-.016-.24 0-.496.016-.736.045-.166.016-.33.031-.496.061-.121.016-.24.045-.361.075-.586.149-1.248.419-1.533 1.003a3.757 3.757 0 0 0-.091.241c-.032.12-.047.27-.047.406 0 .21.045.419.089.629z"/><path fill="#F89224" d="M23.909 11.635a1.765 1.765 0 0 0-.121-.269 2.223 2.223 0 0 0-.331-.412 3 3 0 0 0-.723-.487 5.211 5.211 0 0 0-1.201-.405c-.603-.136-1.205-.2-1.821-.225a17.37 17.37 0 0 0-2.512.076c.105.108.196.224.301.337.195.225.392.465.571.72.227.299.437.629.647.958a13.617 13.617 0 0 1 1.383 3.161c.105.329.182.66.255 1.004.031.12.048.255.077.39l.08.016c.192-.026.376-.111.542-.209.345-.2.646-.471.936-.747.226-.213.444-.434.653-.667.12-.145.256-.295.376-.45.105-.142.21-.284.315-.434a3.82 3.82 0 0 0 .212-.349c.33-.595.601-1.33.361-2.008z"/><path fill="#FEF204" d="m16.803 10.006-.041-.04c-.2.014-.399.045-.603.074-2.154.331-4.26.915-6.285 1.709.168.045.336.09.507.15.706.225 1.413.464 2.108.72a46.78 46.78 0 0 1 6.998 3.31l.584.345c-.495-2.282-1.545-4.491-3.185-6.181l-.083-.087z"/><path fill="#1572B8" d="M4.469 11.468c-.181.27-.354.525-.517.81-.15.239-.271.479-.392.72-.104.194-.21.389-.286.584-.029.045-.045.105-.06.15-.091.225-.195.449-.286.674a8.32 8.32 0 0 0-.195.539c-.09.285-.18.555-.255.84a5.32 5.32 0 0 0-.102.379l.871-.837c.15-.142.15-.141.301-.279 1.533-1.349 3.318-2.366 5.18-3.205a13.637 13.637 0 0 0-.824-.194c-1.053-.24-2.113-.435-3.188-.525-.084.119-.166.225-.247.344z"/></svg>